<svg xmlns="http://www.w3.org/2000/svg" xmlns:xlink="http://www.w3.org/1999/xlink" viewBox="0 0 845.58 70.26"><defs><style>.cls-1{fill:url(#名称未設定グラデーション_151);}.cls-2{fill:url(#名称未設定グラデーション_151-2);}.cls-3{fill:url(#名称未設定グラデーション_151-3);}.cls-4{fill:url(#名称未設定グラデーション_151-4);}.cls-5{fill:url(#名称未設定グラデーション_151-5);}.cls-6{fill:url(#名称未設定グラデーション_151-6);}.cls-7{fill:url(#名称未設定グラデーション_151-7);}.cls-8{fill:url(#名称未設定グラデーション_151-8);}.cls-9{fill:url(#名称未設定グラデーション_151-9);}.cls-10{fill:url(#名称未設定グラデーション_151-10);}.cls-11{fill:url(#名称未設定グラデーション_151-11);}.cls-12{fill:url(#名称未設定グラデーション_151-12);}</style><linearGradient id="名称未設定グラデーション_151" y1="35.13" x2="70.26" y2="35.13" gradientUnits="userSpaceOnUse"><stop offset="0" stop-color="#c0edf9"/><stop offset="1" stop-color="#c0edf9"/></linearGradient><linearGradient id="名称未設定グラデーション_151-2" x1="70.26" y1="35.13" x2="140.52" y2="35.13" xlink:href="#名称未設定グラデーション_151"/><linearGradient id="名称未設定グラデーション_151-3" x1="140.52" y1="35.13" x2="210.77" y2="35.13" xlink:href="#名称未設定グラデーション_151"/><linearGradient id="名称未設定グラデーション_151-4" x1="212.02" y1="35.13" x2="282.27" y2="35.13" xlink:href="#名称未設定グラデーション_151"/><linearGradient id="名称未設定グラデーション_151-5" x1="282.27" y1="35.13" x2="352.53" y2="35.13" xlink:href="#名称未設定グラデーション_151"/><linearGradient id="名称未設定グラデーション_151-6" x1="352.53" y1="35.13" x2="422.79" y2="35.13" xlink:href="#名称未設定グラデーション_151"/><linearGradient id="名称未設定グラデーション_151-7" x1="422.79" y1="35.13" x2="493.05" y2="35.13" xlink:href="#名称未設定グラデーション_151"/><linearGradient id="名称未設定グラデーション_151-8" x1="493.05" y1="35.13" x2="563.31" y2="35.13" xlink:href="#名称未設定グラデーション_151"/><linearGradient id="名称未設定グラデーション_151-9" x1="563.31" y1="35.13" x2="633.56" y2="35.13" xlink:href="#名称未設定グラデーション_151"/><linearGradient id="名称未設定グラデーション_151-10" x1="634.81" y1="35.13" x2="705.06" y2="35.13" xlink:href="#名称未設定グラデーション_151"/><linearGradient id="名称未設定グラデーション_151-11" x1="705.06" y1="35.13" x2="775.32" y2="35.13" xlink:href="#名称未設定グラデーション_151"/><linearGradient id="名称未設定グラデーション_151-12" x1="775.32" y1="35.13" x2="845.58" y2="35.13" xlink:href="#名称未設定グラデーション_151"/></defs><g id="レイヤー_2" data-name="レイヤー 2"><g id="レイヤー_2-2" data-name="レイヤー 2"><circle class="cls-1" cx="35.13" cy="35.13" r="35.13"/><circle class="cls-2" cx="105.39" cy="35.13" r="35.13"/><circle class="cls-3" cx="175.64" cy="35.13" r="35.13"/><circle class="cls-4" cx="247.15" cy="35.13" r="35.13"/><circle class="cls-5" cx="317.4" cy="35.13" r="35.13"/><circle class="cls-6" cx="387.66" cy="35.13" r="35.13"/><circle class="cls-7" cx="457.92" cy="35.13" r="35.13"/><circle class="cls-8" cx="528.18" cy="35.13" r="35.13"/><circle class="cls-9" cx="598.43" cy="35.13" r="35.13"/><circle class="cls-10" cx="669.94" cy="35.13" r="35.13"/><circle class="cls-11" cx="740.19" cy="35.13" r="35.13"/><circle class="cls-12" cx="810.45" cy="35.13" r="35.13"/></g></g></svg>