<svg xmlns="http://www.w3.org/2000/svg" viewBox="0 0 197.82 65.07"><defs><style>.cls-1{fill:#fff;}</style></defs><g id="レイヤー_2" data-name="レイヤー 2"><g id="レイヤー_1-2" data-name="レイヤー 1"><path class="cls-1" d="M190.14,49.7A7.69,7.69,0,0,0,186,50.89a7.61,7.61,0,0,0,1-3.7,7.68,7.68,0,0,0-14.3-3.9A17.87,17.87,0,0,0,145,32.5a28.21,28.21,0,0,0,.18-3.2,29.3,29.3,0,0,0-53.82-16A7.68,7.68,0,0,0,77,14.55,17.86,17.86,0,0,0,44,23.39,7.69,7.69,0,0,0,31.43,29.3c0,.13,0,.25,0,.38a17.68,17.68,0,0,0-3.66-.38A17.89,17.89,0,0,0,9.9,47.19a17.52,17.52,0,0,0,.26,2.92,7.8,7.8,0,0,0-2.47-.41,7.69,7.69,0,1,0,0,15.37H190.14a7.69,7.69,0,0,0,0-15.37Z"/></g></g></svg>