<svg xmlns="http://www.w3.org/2000/svg" viewBox="0 0 277.29 115.6"><defs><style>.cls-1{fill:#fff;}</style></defs><g id="レイヤー_2" data-name="レイヤー 2"><g id="レイヤー_1-2" data-name="レイヤー 1"><path class="cls-1" d="M249.68,60.38a27.35,27.35,0,0,0-12,2.75,21.68,21.68,0,0,0-34.28-21.8,47.89,47.89,0,0,0-69.58-23.12,23.82,23.82,0,0,0-46.74,2.34A42.13,42.13,0,0,0,36.68,61.86a43.28,43.28,0,0,0,.46,6,9.48,9.48,0,0,0-4.41-1.11,9.67,9.67,0,0,0-9.67,9.57A19.35,19.35,0,0,0,19.81,76a19.81,19.81,0,0,0,0,39.62H249.68a27.61,27.61,0,1,0,0-55.22Z"/></g></g></svg>