<svg xmlns="http://www.w3.org/2000/svg" viewBox="0 0 1529.13 221.12"><defs><style>.cls-1{fill:#fff;}</style></defs><g id="レイヤー_2" data-name="レイヤー 2"><g id="レイヤー_1-2" data-name="レイヤー 1"><path class="cls-1" d="M455.51,87.45a56.73,56.73,0,0,0-21.11,4.09,20.9,20.9,0,0,0,1.05-6.26,21.17,21.17,0,0,0-21.17-21.17,20.8,20.8,0,0,0-6.19,1c0-.35.05-.68.05-1a34.55,34.55,0,0,0-63.38-19,21.08,21.08,0,0,0-37.66-6.44,96.32,96.32,0,0,0-166,58.56,56.88,56.88,0,0,0-88.4,41,34.54,34.54,0,1,0-18.18,63.9H454.13v-.94c.47,0,.91.07,1.38.07a56.9,56.9,0,0,0,0-113.8Z"/><path class="cls-1" d="M1502.54,125a26.42,26.42,0,0,0-13.41,3.66c.08-1.22.18-2.43.18-3.66A52.33,52.33,0,0,0,1401,87a31.78,31.78,0,0,0-61.85-1,52.26,52.26,0,0,0-64.37-4.08,31.78,31.78,0,0,0-58.86-13.31,88.71,88.71,0,1,0-166.68,57.89,26.25,26.25,0,0,0-8.41-1.38,26.59,26.59,0,1,0,0,53.18h461.69a26.59,26.59,0,1,0,0-53.18Z"/><path class="cls-1" d="M1057.84,174.52a23.09,23.09,0,0,0-12.44,3.63,23.29,23.29,0,0,0-40.46-23.07,54.16,54.16,0,0,0-83.79-32.69,91.24,91.24,0,0,0,.54-9.7A88.8,88.8,0,0,0,758.55,64.12,23.27,23.27,0,0,0,714.81,68,54.14,54.14,0,0,0,615,94.79a23.3,23.3,0,0,0-38.21,17.9c0,.39,0,.76.06,1.15a53.95,53.95,0,0,0-64.53,61.94,23.29,23.29,0,1,0-7.51,45.34h553a23.3,23.3,0,0,0,0-46.6Z"/></g></g></svg>