<svg xmlns="http://www.w3.org/2000/svg" viewBox="0 0 300.2 293.78"><defs><style>.cls-1{fill:#eee;}.cls-2{fill:#d8d8d8;}.cls-3{fill:#c8c8c8;}.cls-4{fill:#d0d0d0;}.cls-5{fill:#36373c;}.cls-6{fill:#c1c1c1;}.cls-7{fill:#3d4448;}.cls-8{fill:#7c7c7c;}</style></defs><g id="レイヤー_2" data-name="レイヤー 2"><g id="レイヤー_1-2" data-name="レイヤー 1"><path class="cls-1" d="M203.82.39,1.15,129.73a2.5,2.5,0,0,0-.76,3.45l3.68,4.38L209.7,6.34l-2.43-5.19A2.5,2.5,0,0,0,203.82.39Z"/><rect class="cls-1" x="76.16" y="129.26" width="210.48" height="119.26" rx="5.21" transform="translate(-73.13 127.24) rotate(-32.54)"/><rect class="cls-2" x="175.67" y="205.39" width="52.93" height="31.98" rx="2.68" transform="translate(-87.35 143.5) rotate(-32.54)"/><rect class="cls-3" x="182.81" y="230.69" width="53.15" height="4.51" transform="translate(-92.43 149.22) rotate(-32.54)"/><polygon class="cls-2" points="230.57 216.74 232.32 219.49 226.59 219.29 230.57 216.74"/><rect class="cls-4" x="74.89" y="140.02" width="195.55" height="71.11" rx="2.18" transform="translate(-67.34 120.46) rotate(-32.54)"/><rect class="cls-5" x="79.73" y="197.46" width="9.21" height="5.1" transform="translate(-94.35 76.77) rotate(-32.54)"/><rect class="cls-5" x="88.92" y="191.59" width="9.21" height="5.1" transform="translate(-89.75 80.79) rotate(-32.54)"/><rect class="cls-5" x="98.11" y="185.73" width="9.21" height="5.1" transform="translate(-85.16 84.82) rotate(-32.54)"/><rect class="cls-5" x="107.29" y="179.86" width="9.21" height="5.1" transform="translate(-80.56 88.84) rotate(-32.54)"/><rect class="cls-5" x="116.48" y="174" width="9.21" height="5.1" transform="translate(-75.96 92.86) rotate(-32.54)"/><rect class="cls-5" x="125.67" y="168.14" width="9.21" height="5.1" transform="translate(-71.36 96.88) rotate(-32.54)"/><rect class="cls-5" x="134.86" y="162.27" width="9.21" height="5.1" transform="translate(-66.77 100.91) rotate(-32.54)"/><rect class="cls-5" x="144.05" y="156.41" width="9.21" height="5.1" transform="matrix(0.84, -0.54, 0.54, 0.84, -62.17, 104.93)"/><rect class="cls-5" x="153.24" y="150.54" width="9.21" height="5.1" transform="translate(-57.57 108.95) rotate(-32.54)"/><rect class="cls-5" x="162.43" y="144.68" width="9.21" height="5.1" transform="translate(-52.97 112.97) rotate(-32.54)"/><rect class="cls-5" x="171.62" y="138.82" width="9.21" height="5.1" transform="translate(-48.38 116.99) rotate(-32.54)"/><rect class="cls-5" x="180.81" y="132.95" width="9.21" height="5.1" transform="translate(-43.78 121.02) rotate(-32.54)"/><rect class="cls-5" x="190.61" y="126.7" width="9.21" height="5.1" transform="translate(-38.88 125.31) rotate(-32.54)"/><rect class="cls-5" x="199.8" y="120.83" width="9.21" height="5.1" transform="translate(-34.28 129.33) rotate(-32.54)"/><rect class="cls-5" x="208.99" y="114.97" width="9.21" height="5.1" transform="translate(-29.68 133.35) rotate(-32.54)"/><rect class="cls-5" x="218.18" y="109.1" width="9.21" height="5.1" transform="translate(-25.08 137.38) rotate(-32.54)"/><rect class="cls-5" x="227.37" y="103.24" width="9.21" height="5.1" transform="translate(-20.49 141.4) rotate(-32.54)"/><rect class="cls-5" x="85.2" y="203.99" width="9.21" height="9.21" transform="translate(-98.11 81.07) rotate(-32.54)"/><rect class="cls-5" x="94.18" y="198.25" width="9.21" height="9.21" transform="translate(-93.62 85) rotate(-32.54)"/><rect class="cls-5" x="103.16" y="192.52" width="9.21" height="9.21" transform="translate(-89.12 88.93) rotate(-32.54)"/><rect class="cls-5" x="112.15" y="186.79" width="9.21" height="9.21" transform="translate(-84.63 92.86) rotate(-32.54)"/><rect class="cls-5" x="121.13" y="181.06" width="9.21" height="9.21" transform="translate(-80.14 96.79) rotate(-32.54)"/><rect class="cls-5" x="130.11" y="175.33" width="9.21" height="9.21" transform="matrix(0.84, -0.54, 0.54, 0.84, -75.64, 100.72)"/><rect class="cls-5" x="139.09" y="169.6" width="9.21" height="9.21" transform="translate(-71.15 104.65) rotate(-32.54)"/><rect class="cls-5" x="148.07" y="163.87" width="9.21" height="9.21" transform="matrix(0.84, -0.54, 0.54, 0.84, -66.66, 108.58)"/><rect class="cls-5" x="157.05" y="158.14" width="9.21" height="9.21" transform="translate(-62.16 112.51) rotate(-32.54)"/><rect class="cls-5" x="166.03" y="152.41" width="9.21" height="9.21" transform="translate(-57.67 116.45) rotate(-32.54)"/><rect class="cls-5" x="175.01" y="146.67" width="9.21" height="9.21" transform="translate(-53.18 120.38) rotate(-32.54)"/><rect class="cls-5" x="183.99" y="140.94" width="9.21" height="9.21" transform="translate(-48.68 124.31) rotate(-32.54)"/><rect class="cls-5" x="192.97" y="135.21" width="9.21" height="9.21" transform="translate(-44.19 128.24) rotate(-32.54)"/><rect class="cls-5" x="201.95" y="129.48" width="9.21" height="9.21" transform="translate(-39.7 132.17) rotate(-32.54)"/><rect class="cls-5" x="210.93" y="123.75" width="9.21" height="9.21" transform="translate(-35.2 136.1) rotate(-32.54)"/><rect class="cls-5" x="104.06" y="205.43" width="9.21" height="9.21" transform="translate(-95.93 91.44) rotate(-32.54)"/><rect class="cls-5" x="113.04" y="199.7" width="9.21" height="9.21" transform="translate(-91.43 95.37) rotate(-32.54)"/><rect class="cls-5" x="122.02" y="193.97" width="9.21" height="9.21" transform="translate(-86.94 99.3) rotate(-32.54)"/><rect class="cls-5" x="131" y="188.24" width="9.21" height="9.21" transform="translate(-82.45 103.23) rotate(-32.54)"/><rect class="cls-5" x="139.98" y="182.51" width="9.21" height="9.21" transform="translate(-77.95 107.16) rotate(-32.54)"/><rect class="cls-5" x="148.96" y="176.78" width="9.21" height="9.21" transform="translate(-73.46 111.09) rotate(-32.54)"/><rect class="cls-5" x="157.94" y="171.05" width="9.21" height="9.21" transform="translate(-68.97 115.02) rotate(-32.54)"/><rect class="cls-5" x="166.92" y="165.32" width="9.21" height="9.21" transform="translate(-64.47 118.96) rotate(-32.54)"/><rect class="cls-5" x="175.91" y="159.58" width="9.21" height="9.21" transform="matrix(0.84, -0.54, 0.54, 0.84, -59.98, 122.89)"/><rect class="cls-5" x="184.89" y="153.85" width="9.21" height="9.21" transform="matrix(0.84, -0.54, 0.54, 0.84, -55.49, 126.82)"/><rect class="cls-5" x="193.87" y="148.12" width="9.21" height="9.21" transform="matrix(0.84, -0.54, 0.54, 0.84, -50.99, 130.75)"/><rect class="cls-5" x="202.85" y="142.39" width="9.21" height="9.21" transform="translate(-46.5 134.68) rotate(-32.54)"/><rect class="cls-5" x="211.83" y="136.66" width="9.21" height="9.21" transform="translate(-42.01 138.61) rotate(-32.54)"/><rect class="cls-5" x="220.81" y="130.93" width="9.21" height="9.21" transform="translate(-37.51 142.54) rotate(-32.54)"/><rect class="cls-5" x="229.79" y="125.2" width="9.21" height="9.21" transform="matrix(0.84, -0.54, 0.54, 0.84, -33.02, 146.47)"/><rect class="cls-5" x="238.77" y="119.47" width="9.21" height="9.21" transform="translate(-28.53 150.4) rotate(-32.54)"/><rect class="cls-5" x="113.38" y="212.12" width="9.21" height="9.21" transform="translate(-98.06 97.5) rotate(-32.54)"/><rect class="cls-5" x="122.36" y="206.39" width="9.21" height="9.21" transform="translate(-93.57 101.43) rotate(-32.54)"/><rect class="cls-5" x="131.34" y="200.66" width="9.21" height="9.21" transform="translate(-89.07 105.36) rotate(-32.54)"/><rect class="cls-5" x="140.33" y="194.93" width="9.21" height="9.21" transform="translate(-84.58 109.3) rotate(-32.54)"/><rect class="cls-5" x="149.31" y="189.2" width="9.21" height="9.21" transform="matrix(0.84, -0.54, 0.54, 0.84, -80.09, 113.23)"/><rect class="cls-5" x="158.29" y="183.47" width="9.21" height="9.21" transform="translate(-75.59 117.16) rotate(-32.54)"/><rect class="cls-5" x="167.27" y="177.73" width="9.21" height="9.21" transform="translate(-71.1 121.09) rotate(-32.54)"/><rect class="cls-5" x="176.25" y="172" width="9.21" height="9.21" transform="translate(-66.61 125.02) rotate(-32.54)"/><rect class="cls-5" x="185.23" y="166.27" width="9.21" height="9.21" transform="translate(-62.11 128.95) rotate(-32.54)"/><rect class="cls-5" x="194.21" y="160.54" width="9.21" height="9.21" transform="translate(-57.62 132.88) rotate(-32.54)"/><rect class="cls-5" x="203.19" y="154.81" width="9.21" height="9.21" transform="translate(-53.13 136.81) rotate(-32.54)"/><rect class="cls-5" x="212.17" y="149.08" width="9.21" height="9.21" transform="translate(-48.63 140.75) rotate(-32.54)"/><rect class="cls-5" x="221.15" y="143.35" width="9.21" height="9.21" transform="translate(-44.14 144.68) rotate(-32.54)"/><rect class="cls-5" x="230.13" y="137.62" width="9.21" height="9.21" transform="translate(-39.65 148.61) rotate(-32.54)"/><rect class="cls-5" x="120.91" y="219.96" width="9.21" height="9.21" transform="translate(-101.09 102.78) rotate(-32.54)"/><rect class="cls-5" x="129.89" y="214.23" width="9.21" height="9.21" transform="translate(-96.6 106.71) rotate(-32.54)"/><rect class="cls-5" x="138.87" y="208.49" width="9.21" height="9.21" transform="translate(-92.11 110.64) rotate(-32.54)"/><rect class="cls-5" x="147.85" y="202.76" width="9.21" height="9.21" transform="translate(-87.61 114.58) rotate(-32.54)"/><rect class="cls-5" x="156.83" y="197.03" width="9.21" height="9.21" transform="translate(-83.12 118.51) rotate(-32.54)"/><rect class="cls-5" x="165.81" y="191.3" width="9.21" height="9.21" transform="translate(-78.63 122.44) rotate(-32.54)"/><rect class="cls-5" x="174.79" y="185.57" width="9.21" height="9.21" transform="translate(-74.13 126.37) rotate(-32.54)"/><rect class="cls-5" x="184.37" y="179.46" width="9.21" height="9.21" transform="translate(-69.34 130.56) rotate(-32.54)"/><rect class="cls-5" x="193.95" y="173.34" width="9.21" height="9.21" transform="translate(-64.55 134.76) rotate(-32.54)"/><rect class="cls-5" x="203.53" y="167.23" width="9.21" height="9.21" transform="translate(-59.75 138.95) rotate(-32.54)"/><rect class="cls-5" x="213.11" y="161.12" width="9.21" height="9.21" transform="translate(-54.96 143.14) rotate(-32.54)"/><rect class="cls-5" x="222.69" y="155" width="9.21" height="9.21" transform="translate(-50.17 147.34) rotate(-32.54)"/><rect class="cls-5" x="232.27" y="148.89" width="9.21" height="9.21" transform="matrix(0.84, -0.54, 0.54, 0.84, -45.38, 151.53)"/><rect class="cls-5" x="219.92" y="118.02" width="9.21" height="9.21" transform="translate(-30.71 140.03) rotate(-32.54)"/><rect class="cls-5" x="228.43" y="110.7" width="13.89" height="9.56" transform="translate(-25.16 144.75) rotate(-32.54)"/><rect class="cls-5" x="91.01" y="212.52" width="13.1" height="9.21" transform="translate(-101.48 86.58) rotate(-32.54)"/><rect class="cls-5" x="96.24" y="220.26" width="17.83" height="8.72" transform="matrix(0.84, -0.54, 0.54, 0.84, -104.32, 91.84)"/><rect class="cls-5" x="238.26" y="130.2" width="16.18" height="9.21" transform="translate(-33.84 153.69) rotate(-32.54)"/><rect class="cls-5" x="101.92" y="228.59" width="20.11" height="9.21" transform="translate(-107.87 96.86) rotate(-32.54)"/><rect class="cls-5" x="240.28" y="140.3" width="20.11" height="9.21" transform="translate(-38.64 157.42) rotate(-32.54)"/><rect class="cls-5" x="126.38" y="226.8" width="17.44" height="9.21" transform="translate(-103.27 109.02) rotate(-32.54)"/><rect class="cls-5" x="109.07" y="240.48" width="9.21" height="9.21" transform="translate(-113.99 99.63) rotate(-32.54)"/><rect class="cls-5" x="118.05" y="234.75" width="9.21" height="9.21" transform="translate(-109.5 103.56) rotate(-32.54)"/><rect class="cls-5" x="137.99" y="200.66" width="76.16" height="9.21" transform="translate(-82.77 126.95) rotate(-32.54)"/><rect class="cls-5" x="209.65" y="176.29" width="9.21" height="9.21" transform="translate(-63.67 143.66) rotate(-32.54)"/><rect class="cls-5" x="219.23" y="170.18" width="9.21" height="9.21" transform="translate(-58.87 147.86) rotate(-32.54)"/><rect class="cls-5" x="228.81" y="164.06" width="9.21" height="9.21" transform="matrix(0.84, -0.54, 0.54, 0.84, -54.08, 152.05)"/><rect class="cls-5" x="238.39" y="157.95" width="9.21" height="9.21" transform="translate(-49.29 156.25) rotate(-32.54)"/><rect class="cls-5" x="246.4" y="149.36" width="20.11" height="9.21" transform="translate(-42.55 162.14) rotate(-32.54)"/><path class="cls-6" d="M236.92,94.53a1.94,1.94,0,0,0-2.6-.48L72.75,197.16a1.94,1.94,0,0,0-.66,2.55Z"/><path class="cls-7" d="M233.08,85.17,65.72,192,4.07,137.56a2,2,0,0,1,.25-3.21L206.68,5.21a2,2,0,0,1,3,1.13Z"/><polygon class="cls-8" points="223.74 86.11 70.51 183.9 16.72 135.11 202.15 16.78 223.74 86.11"/></g></g></svg>