<svg xmlns="http://www.w3.org/2000/svg" viewBox="0 0 313.85 118.58"><defs><style>.cls-1{fill:#fff;}</style></defs><g id="レイヤー_2" data-name="レイヤー 2"><g id="レイヤー_1-2" data-name="レイヤー 1"><path class="cls-1" d="M279,48.34a34.69,34.69,0,0,0-12.92,2.51,12.82,12.82,0,0,0,.64-3.84,13,13,0,0,0-13-13,12.54,12.54,0,0,0-3.79.63c0-.22,0-.42,0-.63a21.16,21.16,0,0,0-38.82-11.66,12.91,12.91,0,0,0-23.07-3.95A59,59,0,0,0,86.44,54.31,34.84,34.84,0,0,0,32.3,79.44a21.16,21.16,0,1,0-11.14,39.14h257V118c.28,0,.56,0,.84,0a34.85,34.85,0,1,0,0-69.7Z"/></g></g></svg>