<svg xmlns="http://www.w3.org/2000/svg" viewBox="0 0 375.23 131.63"><defs><style>.cls-1{fill:#fff;}</style></defs><g id="レイヤー_2" data-name="レイヤー 2"><g id="レイヤー_1-2" data-name="レイヤー 1"><path class="cls-1" d="M355.59,92.35a19.51,19.51,0,0,0-11.23,3.54c.11-1.17.18-2.35.18-3.54A38.67,38.67,0,0,0,281,62.68,14.39,14.39,0,0,0,260.46,54a23.48,23.48,0,0,0-43.53-15.84A65.51,65.51,0,0,0,92,62a38.65,38.65,0,0,0-62.57,30.4c0,.91.08,1.81.14,2.7a19.63,19.63,0,1,0-9.91,36.58h336a19.64,19.64,0,1,0,0-39.28Z"/></g></g></svg>