<svg xmlns="http://www.w3.org/2000/svg" viewBox="0 0 138.01 169.38"><defs><style>.cls-1{fill:#3d4448;}.cls-2{fill:#f7ede9;}.cls-3{fill:#e8eaee;}.cls-4{fill:#ced5db;}</style></defs><g id="レイヤー_2" data-name="レイヤー 2"><g id="レイヤー_1-2" data-name="レイヤー 1"><path class="cls-1" d="M69.13,169,2.29,136.18a4.1,4.1,0,0,1-1.87-5.47l63-128.42A4.1,4.1,0,0,1,68.88.42L135.72,33.2a4.1,4.1,0,0,1,1.87,5.47L74.6,167.1A4.1,4.1,0,0,1,69.13,169Z"/><rect class="cls-2" x="9.95" y="45.1" width="121.93" height="71.38" rx="0.49" transform="translate(-32.84 108.88) rotate(-63.87)"/><rect class="cls-2" x="25.92" y="140.91" width="27.44" height="7.31" rx="0.46" transform="translate(67.71 -2.68) rotate(26.13)"/><path class="cls-2" d="M109.24,27.4,87.84,16.9a1.36,1.36,0,0,1-.62-1.82h0a1.37,1.37,0,0,1,1.83-.63L110.45,25a1.37,1.37,0,0,1,.62,1.83h0A1.37,1.37,0,0,1,109.24,27.4Z"/><path class="cls-2" d="M112.76,29.12h0a1.36,1.36,0,0,1-.63-1.82h0a1.37,1.37,0,0,1,1.83-.63h0a1.38,1.38,0,0,1,.62,1.83h0A1.36,1.36,0,0,1,112.76,29.12Z"/><rect class="cls-3" x="67.65" y="17.38" width="33.74" height="71.38" transform="translate(-0.35 105.58) rotate(-63.87)"/><rect class="cls-4" x="79.78" y="60.25" width="9.11" height="40.06" transform="translate(-24.88 120.64) rotate(-63.87)"/><rect class="cls-4" x="68.89" y="82.46" width="9.11" height="40.06" transform="translate(-50.92 123.29) rotate(-63.87)"/><rect class="cls-4" x="58.38" y="103.88" width="9.11" height="40.06" transform="translate(-76.03 125.85) rotate(-63.87)"/><rect class="cls-4" x="88.94" y="49.33" width="29.75" height="5.91" transform="translate(33.63 -40.37) rotate(26.13)"/><rect class="cls-4" x="86.05" y="54.18" width="15.17" height="5.91" transform="translate(34.73 -35.4) rotate(26.13)"/><rect class="cls-4" x="101.13" y="61.57" width="15.17" height="5.91" transform="translate(39.53 -41.28) rotate(26.13)"/><rect class="cls-4" x="82.45" y="60.42" width="7.69" height="5.91" transform="translate(36.73 -31.53) rotate(26.13)"/><rect class="cls-4" x="89.59" y="67.73" width="23.22" height="5.91" transform="translate(41.47 -37.34) rotate(26.13)"/></g></g></svg>