<svg xmlns="http://www.w3.org/2000/svg" viewBox="0 0 139.74 48.37"><defs><style>.cls-1{fill:#fff;}</style></defs><g id="レイヤー_2" data-name="レイヤー 2"><g id="レイヤー_1-2" data-name="レイヤー 1"><path class="cls-1" d="M132.53,33.94a7.14,7.14,0,0,0-3.64,1c0-.33.05-.66.05-1a14.2,14.2,0,0,0-24-10.33A8.62,8.62,0,0,0,92.23,18a24.08,24.08,0,0,0-46.16-1.44A8.62,8.62,0,0,0,31.8,22.67,14.2,14.2,0,0,0,8.93,33.94c0,.07,0,.14,0,.21a7.5,7.5,0,0,0-1.72-.21,7.22,7.22,0,1,0,0,14.43H132.53a7.22,7.22,0,0,0,0-14.43Z"/></g></g></svg>