<svg xmlns="http://www.w3.org/2000/svg" viewBox="0 0 281.29 117.27"><defs><style>.cls-1{fill:#fff;}</style></defs><g id="レイヤー_2" data-name="レイヤー 2"><g id="レイヤー_1-2" data-name="レイヤー 1"><path class="cls-1" d="M253.28,61.25A27.81,27.81,0,0,0,241.16,64a22,22,0,0,0-21.53-26.57,21.84,21.84,0,0,0-13.24,4.46A48.57,48.57,0,0,0,135.8,18.48a24.16,24.16,0,0,0-47.41,2.37A42.47,42.47,0,0,0,37.68,68.79a9.69,9.69,0,0,0-4.48-1.13,9.83,9.83,0,0,0-9.81,9.71,19.83,19.83,0,0,0-3.29-.3,20.1,20.1,0,0,0,0,40.2H253.28a28,28,0,1,0,0-56Z"/></g></g></svg>