<svg xmlns="http://www.w3.org/2000/svg" viewBox="0 0 312.33 118"><defs><style>.cls-1{fill:#fff;}</style></defs><g id="レイヤー_2" data-name="レイヤー 2"><g id="レイヤー_1-2" data-name="レイヤー 1"><path class="cls-1" d="M277.64,48.11a34.57,34.57,0,0,0-12.86,2.49,12.69,12.69,0,0,0,.64-3.82,12.91,12.91,0,0,0-12.9-12.9,12.74,12.74,0,0,0-3.78.63c0-.21,0-.42,0-.63a21.06,21.06,0,0,0-38.63-11.6,12.85,12.85,0,0,0-22.95-3.93A58.72,58.72,0,0,0,86,54.05a34.67,34.67,0,0,0-53.88,25,21.05,21.05,0,1,0-11.08,39H276.81v-.57c.28,0,.55,0,.83,0a34.68,34.68,0,1,0,0-69.36Z"/></g></g></svg>