<svg xmlns="http://www.w3.org/2000/svg" viewBox="0 0 236.45 73.32"><defs><style>.cls-1{fill:#9ba7a8;}.cls-2{fill:#fff;}.cls-3{fill:#c7cfd3;}.cls-4{fill:#79cdd1;}.cls-5{fill:#020202;opacity:0.1;}.cls-6{fill:#c5cfd1;}.cls-7{fill:#434d51;}.cls-8{fill:#6a767a;}.cls-9{fill:#c1c4c6;}.cls-10{fill:#444b4c;}.cls-11{fill:#c3c9c9;}</style></defs><g id="レイヤー_2" data-name="レイヤー 2"><g id="レイヤー_1-2" data-name="レイヤー 1"><path class="cls-1" d="M27.23,0A13.87,13.87,0,0,1,39.43,6L51,22.74c12.45,6.88,51.28,12,51.28,12L62.17,38.82l-28.9,5.3L16.44,1.92Z"/><path class="cls-2" d="M30.13,42.28,46,37.64a51.29,51.29,0,0,1,17.84-3.2h121c12.34,0,16.94,1,25.31,6.23,6.36,4,26.36,10,26.36,13.39,0,2.77-9.79,9.4-33.34,9.4l-45.84,0c-.68,1.36-17.26,3.84-34.1,3.83s-33.89-2.32-33.89-3.89c0,0,0,0,0,0l-11,0a62.12,62.12,0,0,1-18-2.67L29.62,51.4a4.28,4.28,0,0,1-3-4.44A5.47,5.47,0,0,1,30.13,42.28Z"/><path class="cls-3" d="M165.2,57.38V47.71A3.68,3.68,0,0,1,168.88,44H173a3.68,3.68,0,0,1,3.67,3.67v9.67A3.67,3.67,0,0,1,173,61.05h-4.16A3.67,3.67,0,0,1,165.2,57.38Zm3.68-12.77a3.1,3.1,0,0,0-3.11,3.1v9.67a3.11,3.11,0,0,0,3.11,3.11H173a3.12,3.12,0,0,0,3.11-3.11V47.71a3.11,3.11,0,0,0-3.11-3.1Z"/><path class="cls-4" d="M176.71,57l25.55,0c16.62,0,26.33-3.24,30.64-6.16.8.45,1.44.84,2,1.24-2.84,3.14-13,7.78-32.53,7.78H175.71a3.81,3.81,0,0,0,1-2.51Z"/><path class="cls-4" d="M48,57,165.2,57v.35a3.69,3.69,0,0,0,1,2.54H57.8Z"/><path class="cls-5" d="M27.52,44.34a4.22,4.22,0,0,0,2.1,1.44L60.23,55a62.8,62.8,0,0,0,18,2.67l124.86.15c16.81,0,26.6-3.38,30.83-6.32,1.56.94,2.51,1.8,2.51,2.54,0,2.77-9.79,9.4-33.34,9.4l-45.84,0a.51.51,0,0,0,.06-.21c0-1.94-15.54-3.27-34.9-3.27s-35.14,1.35-35.14,3.29a.44.44,0,0,0,0,.1l-9.06,0a62.12,62.12,0,0,1-18-2.67L29.62,51.4a4.28,4.28,0,0,1-3-4.44A5.62,5.62,0,0,1,27.52,44.34Z"/><path class="cls-2" d="M144.7,59.75H88.8L0,69.26v.65l18.43,2.87a46.37,46.37,0,0,0,10.27.43l117-7.92C150.42,64.46,149.54,59.75,144.7,59.75Z"/><path class="cls-6" d="M147.05,60.22c.34,1.32-.59,2.8-3,3.22L24.41,71.54a28.78,28.78,0,0,1-5.17-.11L0,69.26v.65l18.43,2.87a46.37,46.37,0,0,0,10.27.43l117-7.92C149.51,64.62,149.67,61.43,147.05,60.22Z"/><path class="cls-7" d="M188.05,37.35a1.14,1.14,0,0,1,1.07-.76h4.13a1.15,1.15,0,0,1,1.07.76l1.86,5.43a.56.56,0,0,1-.53.75h-8.93a.56.56,0,0,1-.53-.75Z"/><path class="cls-7" d="M196.47,42.41l-1.71-4.7a.75.75,0,0,1,.71-1.12h6.77a44,44,0,0,1,7.85,4.08,44.81,44.81,0,0,0,5.77,2.86H198A1.76,1.76,0,0,1,196.47,42.41Z"/><path class="cls-7" d="M146.75,43.87a3.27,3.27,0,1,0,4.54-.86A3.26,3.26,0,0,0,146.75,43.87Z"/><path class="cls-8" d="M152.15,47.55a3.27,3.27,0,1,1-5.4-3.68Z"/><path class="cls-9" d="M146.62,43.78a3.43,3.43,0,1,1,.9,4.77A3.42,3.42,0,0,1,146.62,43.78Zm.27.19a3.1,3.1,0,1,0,4.3-.82A3.1,3.1,0,0,0,146.89,44Z"/><path class="cls-7" d="M135.71,43.87a3.27,3.27,0,1,0,4.54-.86A3.27,3.27,0,0,0,135.71,43.87Z"/><path class="cls-8" d="M141.11,47.55a3.27,3.27,0,0,1-5.4-3.68Z"/><path class="cls-9" d="M135.58,43.78a3.43,3.43,0,1,1,.9,4.77A3.42,3.42,0,0,1,135.58,43.78Zm.27.19a3.1,3.1,0,1,0,4.31-.82A3.1,3.1,0,0,0,135.85,44Z"/><path class="cls-7" d="M124.68,43.87a3.26,3.26,0,1,0,4.53-.86A3.26,3.26,0,0,0,124.68,43.87Z"/><path class="cls-8" d="M130.07,47.55a3.26,3.26,0,1,1-5.39-3.68Z"/><path class="cls-9" d="M124.54,43.78a3.43,3.43,0,1,1,.91,4.77A3.44,3.44,0,0,1,124.54,43.78Zm.27.19a3.1,3.1,0,1,0,4.31-.82A3.11,3.11,0,0,0,124.81,44Z"/><path class="cls-7" d="M113.64,43.87a3.27,3.27,0,1,0,4.54-.86A3.27,3.27,0,0,0,113.64,43.87Z"/><path class="cls-8" d="M119,47.55a3.27,3.27,0,1,1-5.4-3.68Z"/><path class="cls-9" d="M113.5,43.78a3.43,3.43,0,1,1,.91,4.77A3.44,3.44,0,0,1,113.5,43.78Zm.28.19a3.1,3.1,0,1,0,4.3-.82A3.1,3.1,0,0,0,113.78,44Z"/><path class="cls-7" d="M102.6,43.87a3.27,3.27,0,1,0,4.54-.86A3.27,3.27,0,0,0,102.6,43.87Z"/><path class="cls-8" d="M108,47.55a3.27,3.27,0,0,1-5.4-3.68Z"/><path class="cls-9" d="M102.47,43.78a3.43,3.43,0,1,1,.9,4.77A3.42,3.42,0,0,1,102.47,43.78Zm.27.19a3.1,3.1,0,1,0,4.31-.82A3.1,3.1,0,0,0,102.74,44Z"/><path class="cls-10" d="M61.43,37a.3.3,0,0,1-.3.3H29.93a.29.29,0,0,1-.3-.3h0a.29.29,0,0,1,.3-.3h31.2a.3.3,0,0,1,.3.3Z"/><path class="cls-10" d="M61.43,38.07a.3.3,0,0,1-.3.3H29.93a.29.29,0,0,1-.3-.3h0a.29.29,0,0,1,.3-.3h31.2a.3.3,0,0,1,.3.3Z"/><path class="cls-10" d="M61.43,39.19a.3.3,0,0,1-.3.3H29.93a.29.29,0,0,1-.3-.3h0a.29.29,0,0,1,.3-.3h31.2a.3.3,0,0,1,.3.3Z"/><path class="cls-10" d="M61.43,40.31a.3.3,0,0,1-.3.3H29.93a.29.29,0,0,1-.3-.3h0a.29.29,0,0,1,.3-.3h31.2a.3.3,0,0,1,.3.3Z"/><path class="cls-10" d="M61.43,41.43a.31.31,0,0,1-.3.3H29.93a.3.3,0,0,1-.3-.3h0a.3.3,0,0,1,.3-.31h31.2a.31.31,0,0,1,.3.31Z"/><path class="cls-10" d="M61.43,42.55a.31.31,0,0,1-.3.3H29.93a.3.3,0,0,1-.3-.3h0a.3.3,0,0,1,.3-.31h31.2a.31.31,0,0,1,.3.31Z"/><path class="cls-10" d="M61.43,43.66a.31.31,0,0,1-.3.31H29.93a.3.3,0,0,1-.3-.31h0a.3.3,0,0,1,.3-.3h31.2a.31.31,0,0,1,.3.3Z"/><path class="cls-10" d="M61.43,44.78a.31.31,0,0,1-.3.31H29.93a.3.3,0,0,1-.3-.31h0a.3.3,0,0,1,.3-.3h31.2a.31.31,0,0,1,.3.3Z"/><path class="cls-10" d="M61.43,45.9a.31.31,0,0,1-.3.31H29.93a.3.3,0,0,1-.3-.31h0a.29.29,0,0,1,.3-.3h31.2a.3.3,0,0,1,.3.3Z"/><rect class="cls-11" x="87.36" y="32.27" width="3.84" height="18.31"/><rect class="cls-5" x="85.94" y="45.79" width="5.26" height="4.79"/><path class="cls-2" d="M67.22,30.8c-4.21.07-33.85,2.65-33.85,2.65v16S63,52,67.22,52.05c3,.06,22.28-1.46,22.28-1.46V32.27S70.19,30.75,67.22,30.8Z"/><path class="cls-5" d="M67.22,47.25c-4.21-.07-33.85-2.64-33.85-2.64v4.8S63,52,67.22,52.05c3,.06,22.28-1.46,22.28-1.46v-4.8S70.19,47.31,67.22,47.25Z"/></g></g></svg>